<svg xmlns="http://www.w3.org/2000/svg" xmlns:xlink="http://www.w3.org/1999/xlink" viewBox="0 0 323.14 323.14"><defs><style>.cls-1{fill:url(#linear-gradient);}.cls-19,.cls-2,.cls-24,.cls-31{fill:#8d6e37;}.cls-24,.cls-3,.cls-30,.cls-31{stroke:#8d6e37;}.cls-19,.cls-24,.cls-3,.cls-30,.cls-31{stroke-miterlimit:10;}.cls-3{stroke-width:0.5px;fill:url(#linear-gradient-2);}.cls-4{fill:url(#linear-gradient-3);}.cls-5{fill:url(#linear-gradient-4);}.cls-6{fill:url(#linear-gradient-5);}.cls-7{fill:url(#linear-gradient-6);}.cls-8{fill:url(#linear-gradient-7);}.cls-9{fill:url(#linear-gradient-8);}.cls-10{fill:url(#linear-gradient-9);}.cls-11{fill:url(#linear-gradient-10);}.cls-12{fill:url(#linear-gradient-11);}.cls-13{fill:url(#linear-gradient-12);}.cls-14{fill:url(#linear-gradient-13);}.cls-15{fill:url(#linear-gradient-14);}.cls-16{fill:url(#linear-gradient-15);}.cls-17{fill:url(#linear-gradient-16);}.cls-18{fill:url(#linear-gradient-17);}.cls-19{font-size:34.05px;stroke:#d2b25b;stroke-width:0.43px;}.cls-19,.cls-24{font-family:Raleway, Raleway;}.cls-20{letter-spacing:0em;}.cls-21{letter-spacing:-0.01em;}.cls-22{letter-spacing:0em;}.cls-23{letter-spacing:-0.01em;}.cls-24{font-size:66.45px;letter-spacing:0.08em;}.cls-25{letter-spacing:0.08em;}.cls-26{letter-spacing:0.12em;}.cls-27{letter-spacing:-0.02em;}.cls-28{letter-spacing:0.1em;}.cls-29{opacity:0.5;}.cls-30{fill:none;stroke-width:0.43px;}.cls-31{stroke-width:0.38px;}</style><linearGradient id="linear-gradient" x1="7.85" y1="161.57" x2="314.62" y2="161.57" gradientUnits="userSpaceOnUse"><stop offset="0" stop-color="#c39e3a"/><stop offset="0.2" stop-color="#e1c782"/><stop offset="0.5" stop-color="#f0e5c4"/><stop offset="0.8" stop-color="#e1c782"/><stop offset="1" stop-color="#c39e3a"/></linearGradient><linearGradient id="linear-gradient-2" x1="0.25" y1="161.57" x2="322.89" y2="161.57" xlink:href="#linear-gradient"/><linearGradient id="linear-gradient-3" x1="243.58" y1="96.05" x2="253.46" y2="96.05" gradientUnits="userSpaceOnUse"><stop offset="0" stop-color="#f0e5c4"/><stop offset="0.3" stop-color="#e1c782"/><stop offset="0.5" stop-color="#c39e3a"/><stop offset="0.7" stop-color="#e1c782"/><stop offset="1" stop-color="#f0e5c4"/></linearGradient><linearGradient id="linear-gradient-4" x1="243.73" y1="109.56" x2="253.72" y2="109.56" xlink:href="#linear-gradient-3"/><linearGradient id="linear-gradient-5" x1="250.2" y1="99.38" x2="257.37" y2="99.38" xlink:href="#linear-gradient-3"/><linearGradient id="linear-gradient-6" x1="250.08" y1="105.68" x2="257.17" y2="105.68" xlink:href="#linear-gradient-3"/><linearGradient id="linear-gradient-7" x1="256.21" y1="100.88" x2="260.42" y2="100.88" xlink:href="#linear-gradient-3"/><linearGradient id="linear-gradient-8" x1="256.3" y1="104.41" x2="260.28" y2="104.41" xlink:href="#linear-gradient-3"/><linearGradient id="linear-gradient-9" x1="260.01" y1="102.79" x2="267.57" y2="102.79" xlink:href="#linear-gradient-3"/><linearGradient id="linear-gradient-10" x1="69.68" y1="96.07" x2="79.55" y2="96.07" xlink:href="#linear-gradient-3"/><linearGradient id="linear-gradient-11" x1="69.42" y1="109.55" x2="79.41" y2="109.55" xlink:href="#linear-gradient-3"/><linearGradient id="linear-gradient-12" x1="65.77" y1="99.4" x2="72.93" y2="99.4" xlink:href="#linear-gradient-3"/><linearGradient id="linear-gradient-13" x1="65.97" y1="105.7" x2="73.06" y2="105.7" xlink:href="#linear-gradient-3"/><linearGradient id="linear-gradient-14" x1="62.72" y1="100.9" x2="66.93" y2="100.9" xlink:href="#linear-gradient-3"/><linearGradient id="linear-gradient-15" x1="62.86" y1="104.42" x2="66.84" y2="104.42" xlink:href="#linear-gradient-3"/><linearGradient id="linear-gradient-16" x1="55.57" y1="102.79" x2="63.13" y2="102.79" xlink:href="#linear-gradient-3"/><linearGradient id="linear-gradient-17" x1="86.67" y1="103.14" x2="236.11" y2="103.14" xlink:href="#linear-gradient-3"/></defs><title>Asset 2</title><g id="Layer_2" data-name="Layer 2"><g id="Layer_2-2" data-name="Layer 2"><circle class="cls-1" cx="161.23" cy="161.57" r="153.38"/><path class="cls-2" d="M314.4,161.64a152.77,152.77,0,1,1-1.79-23.53,156.93,156.93,0,0,1,1.79,23.53c0,.28.44.07.44-.15a153.2,153.2,0,1,0-1.8,23.58,157.47,157.47,0,0,0,1.8-23.58C314.84,161.22,314.4,161.42,314.4,161.64Z"/><path class="cls-3" d="M161.57,322.89C72.62,322.89.25,250.52.25,161.57S72.62.25,161.57.25,322.89,72.62,322.89,161.57,250.52,322.89,161.57,322.89Zm0-317.8C75.28,5.08,5.08,75.28,5.08,161.57s70.2,156.48,156.48,156.48,156.48-70.2,156.48-156.48S247.85,5.08,161.57,5.08Z"/><path class="cls-4" d="M248.19,92.31C249,90,253,92,252.52,94.17a5.42,5.42,0,0,1-.82,1.51,11.12,11.12,0,0,1-2.42,2.63c-1.78,1.42-3.84,2.13-5.82,3.18-.32.17.13.62.38.56,3.7-.78,9.31-4.16,9.71-8.39.31-3.33-5-5.31-5.83-1.6,0,.23.37.53.47.26Z"/><path class="cls-5" d="M243.78,104.1c3.28.87,7,2.37,8.58,5.64.63,1.33.88,2.56,0,3.81-1.69,2.34-5.69.4-4.44-2.39.11-.26-.4-.64-.58-.39-2.83,4,5,6.95,6.37,2.14.58-2.06-1-4.4-2.36-5.77a13.7,13.7,0,0,0-7.61-3.45c-.28,0-.12.35.06.4Z"/><path class="cls-6" d="M256.9,95.73c-1,1.27-2,2.54-3.16,3.71s-2.5,2-3.69,3.08c-.29.26.31.64.55.55a10.72,10.72,0,0,0,3.66-2.91,30.35,30.35,0,0,0,3.09-4.06c.15-.23-.28-.6-.46-.38Z"/><path class="cls-7" d="M250.17,103a12.2,12.2,0,0,1,3.86,2.13,14.27,14.27,0,0,1,2.57,3.45c.14.22.73.43.63,0-.67-3.1-4.25-5.22-7.05-6-.36-.1-.25.35,0,.44Z"/><path class="cls-8" d="M259.94,98.8c-.59.7-1.14,1.43-1.79,2.08s-1.38,1.1-2,1.7c-.18.17.18.5.37.44,1.79-.58,3-2.29,3.92-3.83.14-.24-.28-.61-.47-.39Z"/><path class="cls-9" d="M256.4,102.9a6.73,6.73,0,0,1,2,1.19,9.08,9.08,0,0,1,1.29,2.09c.09.15.58.41.56,0-.07-2-2.23-3.29-3.89-3.81-.4-.13-.26.38,0,.49Z"/><path class="cls-10" d="M260.22,103c1-.23,2-.6,3.05-.77a6.14,6.14,0,0,1,2.83.09,3.41,3.41,0,0,1,.6.26q.31-.12,0,.08c-.33.84-2.39.69-3,.63a22.44,22.44,0,0,1-3.44-.76c-.41-.11-.39.41-.08.54a11,11,0,0,0,5,1c.64,0,2.48-.4,2.49-1.31s-1.6-1.2-2.17-1.29a10.55,10.55,0,0,0-5.56,1.05c-.24.1.1.47.29.43Z"/><path class="cls-11" d="M75.42,92.2c-.79-3.56-6.24-2.27-5.82,1.3.51,4.3,6.09,7.67,9.85,8.54.4.09.37-.39.08-.53-2.1-1-4.27-1.78-6.07-3.33A10.78,10.78,0,0,1,71,95.1a3.69,3.69,0,0,1-.43-2.73c.66-1.76,3.6-2.49,4.43-.2.08.22.55.38.47,0Z"/><path class="cls-12" d="M79.25,103.71a13.46,13.46,0,0,0-7.6,3.41c-1.54,1.5-2.92,3.89-2,6,1.72,4.19,8.93,1.91,6.21-2.2-.18-.27-.76-.33-.55.1,1.61,3.42-3.79,5-4.93,1.82-.49-1.38.36-3,1.14-4.11,1.8-2.57,5.1-3.87,8-4.67.28-.08,0-.43-.22-.41Z"/><path class="cls-13" d="M65.82,96c1.73,2.57,4,5.84,7,7.06.39.16.41-.34.18-.53a35.17,35.17,0,0,1-3.77-3.16c-1.07-1.13-2-2.36-3-3.59-.2-.26-.6-.11-.38.21Z"/><path class="cls-14" d="M72.85,102.54c-2.72.73-6.35,2.73-6.93,5.79,0,.26.4.72.62.42a19.81,19.81,0,0,1,2.57-3.47,12.52,12.52,0,0,1,4-2.3c.25-.09-.1-.5-.3-.45Z"/><path class="cls-15" d="M62.73,99c1,1.59,2.23,3.29,4,4,.3.11.31-.26.14-.4a23.73,23.73,0,0,1-2.06-1.68c-.62-.63-1.15-1.35-1.7-2-.16-.2-.62-.16-.43.15Z"/><path class="cls-16" d="M66.61,102.41c-1.63.5-3.7,1.68-3.76,3.64,0,.22.39.54.56.31a15.34,15.34,0,0,1,1.36-2.16,7.17,7.17,0,0,1,2.16-1.3c.27-.12-.11-.55-.33-.49Z"/><path class="cls-17" d="M63,102.56a11,11,0,0,0-5.67-1c-.62.1-2,.42-1.85,1.27s1.67,1.19,2.3,1.28a9.78,9.78,0,0,0,5.28-1c.33-.15-.13-.64-.39-.58-1,.24-1.93.52-2.91.68a7.1,7.1,0,0,1-2,.1c-.09,0-1.59-.29-1.53-.59a6.47,6.47,0,0,1,.93-.39,5.76,5.76,0,0,1,2.41-.17A27,27,0,0,1,63,103c.36.08.23-.33,0-.43Z"/><path class="cls-18" d="M86.74,103.31c37.17.63,74.4.12,111.58.14h32.91c.6,0,.22-.81-.22-.81h-.16c-.6,0-.22.81.22.81,1.61,0,3.22,0,4.83,0,.57,0,.16-.8-.29-.73h-.06c-.53,0-.2.72.2.72h.16c.51.07.23-.72-.2-.73-1.62,0-3.24,0-4.85,0-.6,0-.22.81.22.81h.16c.6,0,.22-.81-.22-.81l-111.53,0c-11,0-21.92-.09-32.88.1-.39,0-.14.52.14.52Z"/><text class="cls-19" transform="translate(91.48 97.33)">Re<tspan class="cls-20" x="42.46" y="0">s</tspan><tspan class="cls-21" x="59.01" y="0">t</tspan><tspan class="cls-22" x="69.94" y="0">o</tspan><tspan class="cls-23" x="90.19" y="0">r</tspan><tspan x="101.8" y="0">an</tspan></text><text class="cls-24" transform="translate(36.6 182.53)">D<tspan class="cls-25" x="52.98" y="0">U</tspan><tspan class="cls-26" x="108.59" y="0">K</tspan><tspan class="cls-27" x="159.45" y="0">A</tspan><tspan class="cls-28" x="202.98" y="0">T</tspan></text><g id="dance" class="cls-29"><path class="cls-2" d="M112.27,222.46c.37-.44,1.17-1.25,1.17-1.25,1.2-1.24,2.37-2.51,3.59-3.73,2.74-2.76,4.4-5.5,3.78-7.72a6.33,6.33,0,0,1-.5-2.92,5,5,0,0,1,.47-1.58,4.1,4.1,0,0,1,1.92-2.29,4.76,4.76,0,0,1,2.65-.29,6.23,6.23,0,0,1,2.85.73,5.65,5.65,0,0,1,2.18,2.34,1.29,1.29,0,0,1,.13.55,17.15,17.15,0,0,1-1,6.17,1.21,1.21,0,0,0-.08.42,3.57,3.57,0,0,0,.52,1.81,4.35,4.35,0,0,0,3.06,1.73c4.69.82,9.37,1.08,13.94-.66a21,21,0,0,0,3-1.38c2.59-1.49,5.14-3.05,7.7-4.59a3.08,3.08,0,0,0,1.55-1.63c.37-1.16-.94-3-1.26-4.17-.83-3.15,1-5,3.36-6.41a5.24,5.24,0,0,1,5.81-.16c2,1.22,2.25,3.15,2.11,5.16-.12,1.86-1.15,3.75-.69,5.36a.75.75,0,0,0,.49.58c7.65,1.85,14.09,6.54,21.43,9.11a44.06,44.06,0,0,0,5.44,1.32,1.29,1.29,0,0,0,1.43-.68c1.24-2.61-.9-4.88-.77-7.47a1.31,1.31,0,0,1,.12-.48,6.37,6.37,0,0,1,6.9-4.1,8,8,0,0,1,3.09.9,6.54,6.54,0,0,1,2,1.56,17.45,17.45,0,0,1,1,1.43,5.44,5.44,0,0,1,.46.76,3.64,3.64,0,0,1,.32,1.63,3.71,3.71,0,0,1-1.09,2.21,41.61,41.61,0,0,0-2.68,3.57,1.29,1.29,0,0,0,.35,1.77c3.35,2.33,10,7.8,12.55,17a29,29,0,0,1,1,9.49.73.73,0,0,1-.14.51.75.75,0,0,1-.56.27,8.61,8.61,0,0,1-5.8-2.74l-.25-.32a12.09,12.09,0,0,0-2.64-7.4,1.28,1.28,0,0,0-2.19,1.26h0c3.12,8.45,4.76,17.29,6.77,26a99.85,99.85,0,0,0,4,12.44c.66,1.77.63,3-.68,4.37-2.15,2.32-5,3.15-7.82,3.52-6.43.84-12.88,2.08-19.4.74-1.75-.36-3.46-.9-5.17-1.41a4.1,4.1,0,0,1-3-3.81c-.26-4.33-.71-8.75-.16-13,1.08-8.31,4.64-15.9,8.07-23.47,1.46-3.22,2.88-6.46,2.91-10.42a1.29,1.29,0,0,0-1.32-1.29,20.23,20.23,0,0,1-17.55-8.32,1.29,1.29,0,0,0-2.29.53c-.61,3.35-.4,6.87-2.47,9.81a1.3,1.3,0,0,0,.38,1.88c2,1.16,2.25,3.22,2.43,5.64.44,5.78-1.44,11.14-2.28,16.69-.58,3.84-.32,7.8-.42,11.71,0,.42.07.86,0,1.28-.5,5.23-.63,9.26-1.16,11.67-.07.33-.18.82-.34,1.43a1.19,1.19,0,0,1-.32.57,3.45,3.45,0,0,1-2.95.92,5.7,5.7,0,0,1-3.48-2.11,4.32,4.32,0,0,1-.77-1.87c-.55-2.59-1.05-5.18-1.59-7.77a9.07,9.07,0,0,0-.53-2.22c-1.64-3.29-3.57-6.45-5-9.83a22.12,22.12,0,0,1-1.58-6.93,41.93,41.93,0,0,1,2.15-17.47,12.33,12.33,0,0,0,.06-8.28,45.56,45.56,0,0,1-1.3-5.95,1.29,1.29,0,0,0-1.88-.91l-14.53,7.79-.19.12a19.86,19.86,0,0,0-6.56,8.83,1.34,1.34,0,0,0-.08.52c.1,2.77.26,5.35,2.25,7.82,6.87,8.55,9.41,18.54,8.32,29.31-.22,2.19-1.89,4.24-3.09,6.35a1.31,1.31,0,0,1-1.07.67c-3.68.2-7,.53-10.23.44-5.21-.15-10.42-.61-15.62-1-2.36-.19-5.22-3.33-5.06-6,.27-4.68.86-9.34,1.45-14a45.44,45.44,0,0,1,1.33-6.54c1.15-4.11,2.52-8.17,3.69-12.28.79-2.74,1.45-5.52,2.15-8.3a1.29,1.29,0,0,0-.76-1.51,13.26,13.26,0,0,1-3.1-1.63,3.75,3.75,0,0,1-.32-.34,4.25,4.25,0,0,1-.36-1.8,15.68,15.68,0,0,1,1.54-8A1.49,1.49,0,0,1,112.27,222.46Z"/><path class="cls-30" d="M112.27,222.46c.37-.44,1.17-1.25,1.17-1.25,1.2-1.24,2.37-2.51,3.59-3.73,2.74-2.76,4.4-5.5,3.78-7.72a6.33,6.33,0,0,1-.5-2.92,5,5,0,0,1,.47-1.58,4.1,4.1,0,0,1,1.92-2.29,4.76,4.76,0,0,1,2.65-.29,6.23,6.23,0,0,1,2.85.73,5.65,5.65,0,0,1,2.18,2.34,1.29,1.29,0,0,1,.13.55,17.15,17.15,0,0,1-1,6.17,1.21,1.21,0,0,0-.08.42,3.57,3.57,0,0,0,.52,1.81,4.35,4.35,0,0,0,3.06,1.73c4.69.82,9.37,1.08,13.94-.66a21,21,0,0,0,3-1.38c2.59-1.49,5.14-3.05,7.7-4.59a3.08,3.08,0,0,0,1.55-1.63c.37-1.16-.94-3-1.26-4.17-.83-3.15,1-5,3.36-6.41a5.24,5.24,0,0,1,5.81-.16c2,1.22,2.25,3.15,2.11,5.16-.12,1.86-1.15,3.75-.69,5.36a.75.75,0,0,0,.49.58c7.65,1.85,14.09,6.54,21.43,9.11a44.06,44.06,0,0,0,5.44,1.32,1.29,1.29,0,0,0,1.43-.68c1.24-2.61-.9-4.88-.77-7.47a1.31,1.31,0,0,1,.12-.48,6.37,6.37,0,0,1,6.9-4.1,8,8,0,0,1,3.09.9,6.54,6.54,0,0,1,2,1.56,17.45,17.45,0,0,1,1,1.43,5.44,5.44,0,0,1,.46.76,3.64,3.64,0,0,1,.32,1.63,3.71,3.71,0,0,1-1.09,2.21,41.61,41.61,0,0,0-2.68,3.57,1.29,1.29,0,0,0,.35,1.77c3.35,2.33,10,7.8,12.55,17a29,29,0,0,1,1,9.49.73.73,0,0,1-.14.51.75.75,0,0,1-.56.27,8.61,8.61,0,0,1-5.8-2.74l-.25-.32a12.09,12.09,0,0,0-2.64-7.4,1.28,1.28,0,0,0-2.19,1.26h0c3.12,8.45,4.76,17.29,6.77,26a99.85,99.85,0,0,0,4,12.44c.66,1.77.63,3-.68,4.37-2.15,2.32-5,3.15-7.82,3.52-6.43.84-12.88,2.08-19.4.74-1.75-.36-3.46-.9-5.17-1.41a4.1,4.1,0,0,1-3-3.81c-.26-4.33-.71-8.75-.16-13,1.08-8.31,4.64-15.9,8.07-23.47,1.46-3.22,2.88-6.46,2.91-10.42a1.29,1.29,0,0,0-1.32-1.29,20.23,20.23,0,0,1-17.55-8.32,1.29,1.29,0,0,0-2.29.53c-.61,3.35-.4,6.87-2.47,9.81a1.3,1.3,0,0,0,.38,1.88c2,1.16,2.25,3.22,2.43,5.64.44,5.78-1.44,11.14-2.28,16.69-.58,3.84-.32,7.8-.42,11.71,0,.42.07.86,0,1.28-.5,5.23-.63,9.26-1.16,11.67-.07.33-.18.82-.34,1.43a1.19,1.19,0,0,1-.32.57,3.45,3.45,0,0,1-2.95.92,5.7,5.7,0,0,1-3.48-2.11,4.32,4.32,0,0,1-.77-1.87c-.55-2.59-1.05-5.18-1.59-7.77a9.07,9.07,0,0,0-.53-2.22c-1.64-3.29-3.57-6.45-5-9.83a22.12,22.12,0,0,1-1.58-6.93,41.93,41.93,0,0,1,2.15-17.47,12.33,12.33,0,0,0,.06-8.28,45.56,45.56,0,0,1-1.3-5.95,1.29,1.29,0,0,0-1.88-.91l-14.53,7.79-.19.12a19.86,19.86,0,0,0-6.56,8.83,1.34,1.34,0,0,0-.08.52c.1,2.77.26,5.35,2.25,7.82,6.87,8.55,9.41,18.54,8.32,29.31-.22,2.19-1.89,4.24-3.09,6.35a1.31,1.31,0,0,1-1.07.67c-3.68.2-7,.53-10.23.44-5.21-.15-10.42-.61-15.62-1-2.36-.19-5.22-3.33-5.06-6,.27-4.68.86-9.34,1.45-14a45.44,45.44,0,0,1,1.33-6.54c1.15-4.11,2.52-8.17,3.69-12.28.79-2.74,1.45-5.52,2.15-8.3a1.29,1.29,0,0,0-.76-1.51,13.26,13.26,0,0,1-3.1-1.63,3.75,3.75,0,0,1-.32-.34,4.25,4.25,0,0,1-.36-1.8,15.68,15.68,0,0,1,1.54-8A1.49,1.49,0,0,1,112.27,222.46Z"/><path class="cls-31" d="M109.58,190.89"/></g></g></g></svg>