<?xml version="1.0" encoding="utf-8"?>
<!-- Generator: Adobe Illustrator 21.0.2, SVG Export Plug-In . SVG Version: 6.00 Build 0)  -->
<svg version="1.1" id="Capa_1" xmlns="http://www.w3.org/2000/svg" xmlns:xlink="http://www.w3.org/1999/xlink" x="0px" y="0px"
	 viewBox="0 0 56 56" style="enable-background:new 0 0 56 56;" xml:space="preserve">
<style type="text/css">
	.st0{fill:#EFE4C2;}
</style>
<path class="st0" d="M28,0C12.6,0,0,12.6,0,28s12.6,28,28,28s28-12.6,28-28S43.4,0,28,0z M28,54C13.7,54,2,42.3,2,28S13.7,2,28,2
	s26,11.7,26,26S42.3,54,28,54z"/>
<path class="st0" d="M39.3,15.3l-24,24c-0.4,0.4-0.4,1,0,1.4c0.4,0.4,1,0.4,1.4,0l24-24c0.4-0.4,0.4-1,0-1.4
	C40.3,14.9,39.7,14.9,39.3,15.3z"/>
<path class="st0" d="M40.7,39.3l-24-24c-0.4-0.4-1-0.4-1.4,0c-0.4,0.4-0.4,1,0,1.4l24,24c0.4,0.4,1,0.4,1.4,0
	C41.1,40.3,41.1,39.7,40.7,39.3z"/>
</svg>
