<svg id="Layer_1" data-name="Layer 1" xmlns="http://www.w3.org/2000/svg" viewBox="0 0 695.27 720.73"><defs><style>.cls-1{fill:#202020;}</style></defs><title>menu1b</title><path class="cls-1" d="M214.81,29.81c1.88-.84,3.74-1.71,5.63-2.52L226.17,25l5.72-2.26,2.86-1.13,1.43-.56,1.46-.49,11.65-3.94,2.92-1c1-.33,2-.58,3-.87l5.93-1.69c-8.47,2.11-16.72,5-25.06,7.71-8.17,3.14-16.45,6.09-24.43,9.8l-6,2.66-1.51.67-1.48.73-3,1.47c-3.93,2-7.9,3.91-11.81,6l-11.54,6.5c-1,.55-1.93,1.08-2.88,1.64L170.59,52,165,55.54a341.22,341.22,0,0,0-42.61,31.8l-2.53,2.17c-.85.72-1.69,1.45-2.49,2.22l-4.86,4.57c-3.23,3.07-6.55,6-9.58,9.3s-6.21,6.39-9.26,9.64l-8.82,10.06a374.24,374.24,0,0,0-31.55,43.27,385.9,385.9,0,0,0-24.71,47.61A382,382,0,0,0,11.31,267L8.24,280c-.24,1.09-.54,2.17-.73,3.27l-.61,3.3-1.21,6.59-1.2,6.59c-.34,2.21-.6,4.42-.91,6.63l-.87,6.64-.43,3.32c-.16,1.1-.29,2.21-.36,3.32L.82,333l-.27,3.33-.11,3.34-.2,6.67L0,353l0,1.67,0,1.67.06,3.33L.36,373a394.91,394.91,0,0,0,6.3,52.79c.84,4.34,1.89,8.64,2.84,13,.5,2.15.93,4.32,1.49,6.46l1.76,6.38L14.52,458l.89,3.19c.31,1.06.68,2.1,1,3.14l4.15,12.54A386,386,0,0,0,41.64,525a391.3,391.3,0,0,0,27.54,44.22c2.54,3.5,5.24,6.88,7.85,10.31,1.33,1.7,2.6,3.44,4,5.1l4.17,4.93,4.17,4.92,2.08,2.46c.71.8,1.46,1.58,2.18,2.37l8.76,9.41c.72.8,1.47,1.55,2.25,2.29l2.29,2.24,4.58,4.48c1.53,1.49,3,3,4.59,4.46l4.77,4.25,4.77,4.24c1.59,1.41,3.16,2.85,4.83,4.16l9.89,8c1.62,1.36,3.34,2.59,5,3.85l5.11,3.75,5.1,3.74c1.72,1.22,3.5,2.35,5.24,3.53,3.51,2.32,7,4.69,10.52,6.95l10.78,6.46c3.5,2.32,8.12,4.78,13.13,7.65l3.85,2.17,2,1.11,2.05,1,8.39,4.22,4.23,2.12c1.39.73,2.85,1.3,4.25,1.94l8.25,3.65c5.27,2.44,10.25,4.17,14.18,5.73l6,2.12c1,.37,2,.69,3,1l3.07.92,12.4,3.69,12.74,3.11,3.21.77c1.07.27,2.15.52,3.24.71l6.54,1.24,6.58,1.24,3.31.62,3.34.47,13.45,1.82,1.69.22,1.7.15,3.41.29,6.84.57c2.28.18,4.57.39,6.87.54l6.91.22,6.93.21c2.32.05,4.63.18,7,.09l14-.3c2.34,0,4.67-.21,7-.38l7-.51,7-.53,7-.87,7-.88c2.35-.29,4.7-.57,7-1l14-2.5c4.66-.94,9.27-2.09,13.91-3.14l3.48-.81,1.74-.41,1.72-.49,6.87-2,6.86-2,1.72-.49,1.69-.57,3.38-1.15,6.75-2.3,3.37-1.15c1.13-.38,2.25-.77,3.35-1.22l13.23-5.26c2.22-.83,4.34-1.89,6.51-2.85l6.45-2.94,3.22-1.47c1.07-.49,2.15-1,3.19-1.53l6.28-3.24c4.17-2.18,8.38-4.25,12.39-6.68S545,669.43,549,667l11.67-7.57a383.44,383.44,0,0,0,42.72-33.7A390.72,390.72,0,0,0,639,587.88c2.67-3.26,5.11-6.62,7.58-9.86l3.61-4.86c1.14-1.64,2.22-3.3,3.3-4.93q3.24-4.9,6.27-9.62c1.92-3.21,3.7-6.4,5.45-9.48,3.59-6.11,6.4-12.21,9.1-17.81l2-4.13,1.68-4.07,3.08-7.63c2-4.81,3.38-9.34,4.68-13.23l1.74-5.43.75-2.39c.23-.76.4-1.5.58-2.2,1.43-5.56,2.12-8.6,2.12-8.6.6-2,1.17-4,1.71-5.9s.87-3.86,1.24-5.64a82.62,82.62,0,0,0,1.38-8.73c.33-4.19-.65-4.47-3.9,3l-2.24,6.24c-.41,1.11-.78,2.29-1.26,3.46l-1.48,3.6-3.15,7.71-1.67,4.06-1.9,4.09c-2.59,5.5-5.12,11.3-8.19,16.84L667,520.72c-1.5,2.75-3.16,5.37-4.69,8l-4.58,7.6-4.65,6.88-4.27,6.22c-1.36,1.93-2.77,3.64-4,5.24-2.5,3.17-4.58,5.71-6.1,7.39s-2.58,2.46-2.83,2.27.41-.94,1.35-2.43,2.34-3.56,4-6l2.77-4c1-1.42,2.07-2.87,3-4.47l6.35-9.92c-.59-.37.38-3.3,1.91-7.89.79-2.28,1.79-4.93,2.92-7.81.55-1.45,1.2-2.92,1.75-4.49l1.74-4.82c1.2-3.27,2.46-6.63,3.74-9.94,1.13-3.38,2.27-6.71,3.38-9.84,2.34-6.21,4-11.87,5.47-15.49l1.13-3.65.77-2.4.76-2.8c1.06-4,2.47-8.77,3.88-14.2l2-8.61,1-4.56c.17-.77.37-1.55.52-2.33l.43-2.39,1.74-9.79c.27-1.66.64-3.31.84-5l.64-5.05,1.28-10.05c.31-3.34.52-6.65.78-9.87l.36-4.77c.12-1.57.25-3.11.25-4.63l.2-8.74.09-4c0-1.3.07-2.56,0-3.78l-.22-6.69c-.14-4-.28-7.15-.4-9.07-.51-11.63-1.54-11.64-2.82-4.12-.58,3.81-1.49,9.27-2.39,16.08-.24,1.7-.43,3.48-.71,5.33l-1,5.74-1,6.12c-.36,2.1-.66,4.26-1.19,6.44a357.12,357.12,0,0,1-16,56.8c-3.56,9.43-7.32,18.56-11.26,26.86l-1.41,3.1-.69,1.53-.76,1.48-2.93,5.75-2.75,5.45-.66,1.31-.71,1.26-1.37,2.45c-7.23,12.8-8.24,12.19-7.19,8.62.83-3.7,3.22-10.61,2.3-11.06-1.57,3.25-3.07,6.28-4.52,9.15s-3.12,5.43-4.61,8l-2.22,3.71-1.09,1.81-1.17,1.73L619.62,525l-2.29,3.35c-.75,1.13-1.63,2.18-2.44,3.3-1.66,2.2-3.34,4.46-5.07,6.82s-3.61,4.74-5.59,7.27-4,5.25-6.22,8.06a22.41,22.41,0,0,0-2.68,2.7c-1.67,1.79-4,4.42-7,7.66l-10.82,11-6.68,6.21-3.53,3.3-3.79,3.22-7.86,6.68L547.26,601l-2.12,1.64-1.06.82-1.1.77-4.4,3.08-4.38,3.08L532,612c-.74.49-1.49,1-2.24,1.43L521,619c-.72.45-1.42.93-2.16,1.35l-2.19,1.24L512.35,624l-4.14,2.37-2,1.15-2,1-7.6,3.88L494,633.86c-.87.51-2,1.07-3.47,1.76l-5.18,2.48c-2,.94-4.33,2.11-7,3.27l-9.21,3.75-2.64,1.07-1.37.55-1.43.49-6.1,2.1-6.7,2.3-7.44,2.12c-3.46,1-6,1.79-8,2.36s-3.24.93-4.09,1.26c-1.69.65-1.62,1-1.54,1.32l-.31-1.33c-1.71.57-3.66,1.15-5.77,1.74-1.06.28-2.15.62-3.3.85l-3.55.71-7.58,1.4c-1.3.22-2.61.49-3.94.68l-4,.48c-10.7,1.47-21.5,2-28.68,2.76l-.06-1.37a205.67,205.67,0,0,1-21.51.76l-5.39-.09c-1.8,0-3.59,0-5.38-.22l-10.74-.86L327,664c-.89-.08-1.78-.23-2.67-.34l-5.33-.72-5.33-.7-2.67-.35-2.65-.48q-5.29-1-10.6-1.86c-1.78-.26-3.52-.67-5.27-1l-5.26-1.11.31-1.33-5.2-1.2-1.28-.29-1.25-.36-2.45-.71-8.78-2.57a57.89,57.89,0,0,1-6.09-2.16c-1.45-.59-2.25-1-2.19-1.16l.43-1.3c-1.66-.65-3.53-1.34-5.54-2.05-1-.37-2.06-.68-3.1-1.12l-3.2-1.27-6.59-2.55L239,638.05c-1.07-.44-2.1-.92-3.11-1.36-4.06-1.79-7.71-3.42-10.31-4.67s-4-2.34-3.89-2.63l-.61,1.22-9.36-4.79-8.83-5.1-4.32-2.5-4.13-2.68-8.09-5.24A308.85,308.85,0,0,1,157.78,588a303.82,303.82,0,0,1-44.22-48.39c-1.1-1.39-2-2.9-3.05-4.38l-3-4.45-3-4.47c-1-1.53-1.9-3.09-2.86-4.64L98.71,517l-1.45-2.34-.73-1.17-.67-1.21-5.39-9.74a339.7,339.7,0,0,1-18.61-41.73,343.31,343.31,0,0,1-12.7-45.54,329.72,329.72,0,0,1-5.72-48.12L53.1,354.9l.26-12.3.06-3.08c0-1,.14-2,.2-3.07l.44-6.15.43-6.15c.19-2,.49-4.08.72-6.13l.74-6.13.36-3.07c.11-1,.34-2,.5-3l2.08-12.17,2.67-12.05.66-3,.81-3,1.64-5.94,1.63-5.94,1.93-5.84L70.14,252c.33-1,.61-2,1-2.91l1.1-2.86c1.49-3.81,2.88-7.66,4.43-11.43l4.93-11.19a325.48,325.48,0,0,1,23.68-42.11c2.06-2.88,4-5.82,5.71-8.44l1.19-1.9,1.14-1.69c.71-1.06,1.3-2,1.75-2.78,1.79-3.11,1.27-3.54-3.7,1.66L118,159.9c.56-.7,1.1-1.42,1.66-2.11l1.76-2,3.52-4.06,3.51-4.06c.57-.69,1.18-1.34,1.81-2l1.85-1.94L139.5,136c5.18-4.92,8.32-8.1,10.45-10.41s3.42-3.55,4.61-4.92,2.38-2.74,4.63-4.95c1.1-1.14,2.59-2.34,4.44-3.88s4.15-3.37,7-5.59a304.91,304.91,0,0,1,74.84-42.82l5-2c1.69-.63,3.41-1.19,5.11-1.79,3.41-1.17,6.81-2.39,10.24-3.53l10.4-3,2.6-.76,1.3-.38,1.32-.31,5.27-1.24L292,49.06c1.76-.42,3.51-.86,5.29-1.15l10.66-2,2.67-.49,2.69-.35,5.38-.7,5.38-.71c.9-.11,1.79-.26,2.69-.33l2.7-.21A310.71,310.71,0,0,1,497.88,74.53l9.65,5,9.39,5.43c1.55.92,3.16,1.75,4.67,2.75l4.56,2.94,4.56,2.93L533,95c.76.49,1.48,1,2.22,1.56l8.83,6.3c1.5,1,2.89,2.17,4.31,3.29l4.26,3.36,4.26,3.35c1.41,1.14,2.74,2.36,4.11,3.54,2.72,2.38,5.48,4.72,8.17,7.13,5.19,5,10.57,9.88,15.44,15.24l3.74,3.93c.62.66,1.26,1.3,1.86,2l1.77,2.05,7.1,8.2c2.31,2.78,4.48,5.67,6.73,8.5l3.35,4.26,3.14,4.42,3.14,4.42,1.57,2.21.79,1.1.73,1.14,5.85,9.13,1.47,2.28c.47.77.9,1.56,1.36,2.35l2.7,4.7c1.79,3.14,3.68,6.22,5.26,9.48l5,9.64c1.55,3.26,3,6.57,4.51,9.86.74,1.65,1.52,3.28,2.23,4.94l2,5,2,5,1,2.52.5,1.26.44,1.28,3.5,10.26.88,2.56c.29.86.51,1.73.77,2.6l1.5,5.21,1.5,5.21c.24.87.52,1.73.73,2.61l.62,2.64,2.49,10.55c.46,1.75.71,3.54,1.05,5.32l1,5.33,1,5.33c.34,1.78.5,3.58.76,5.37L670,322.25c.34,3.6.6,7.22.92,10.82l.46,5.41.18,5.43.37,10.87-.14-10.72-.05-5.25-.31-5.17-.61-10.15c-.29-3.34-.72-6.63-1.06-9.9-.57-6.56-1.78-12.92-2.77-19.26-.43-3.18-1.22-6.28-1.87-9.4s-1.31-6.23-2-9.33l-2.5-9.22-1.25-4.62c-.43-1.54-1-3-1.47-4.57l-3-9.19c-.47-1.55-1.11-3.06-1.69-4.58l-1.79-4.59-1.81-4.63c-.31-.77-.59-1.56-.92-2.32l-1-2.29-4.22-9.28c-.36-.78-.7-1.57-1.08-2.35l-1.2-2.31L638.64,211c-1.65-3.12-3.22-6.34-5.14-9.43.3-.17.75-.41.21-2.21a28.55,28.55,0,0,0-1.69-4c-.45-.93-1-2-1.67-3.23-.34-.61-.68-1.29-1.1-2l-1.38-2.18a311.06,311.06,0,0,0-41.27-53.32A321.92,321.92,0,0,0,536.11,92,333.68,333.68,0,0,0,485.59,63.7c-3.85-1.93-7.74-3.37-11.38-4.94l-5.36-2.27c-.87-.39-1.74-.72-2.61-1l-2.57-1q-5.06-1.89-9.55-3.64c-3-1.11-5.86-2-8.46-2.94-7-2.46-14-4.76-24.73-7.67l-8.87-2c-1.62-.35-3.3-.74-5.07-1.08l-5.6-.87-6.12-.92c-2.13-.32-4.36-.66-6.71-.82l-7.35-.62-3.92-.32c-1.33-.11-2.69-.23-4.09-.23,1.86,0,3.72.21,5.57.34l5.57.42,5.56.42,1.39.11,1.38.18,2.77.35,11.07,1.4c3.67.57,7.32,1.29,11,1.92l.37-2c-3.68-.67-7.4-1.46-11.2-2.08l-11.6-1.6c-3.9-.64-7.9-.83-11.91-1.22s-8.07-.8-12.17-.85l-12.38-.44-12.52.18c-4.2,0-8.39.34-12.6.6s-8.43.46-12.61,1-8.39,1-12.57,1.49l-12.45,2.09-3.1.52-3.06.68-6.11,1.35-6.08,1.33c-2,.5-4,1.08-6,1.61l-5.93,1.62c-2,.55-3.95,1-5.85,1.69l-11.43,3.73c-1.9.57-3.73,1.32-5.56,2l-5.46,2.09-5.39,2.05c-1.76.73-3.49,1.52-5.22,2.27l-.83-1.87L219,57.93c-1.14.53-2.32,1-3.43,1.59l-3.37,1.73-6.74,3.45-3.37,1.72-3.28,1.89c-3.58,1.37-4.46,1.28-3.1,0a59.93,59.93,0,0,1,10.42-6.95c10.84-6.54,29.46-15.54,52.23-23.06s49.73-12.93,75.81-14.89L339,23c.81-.06,1.62-.14,2.43-.18l2.42-.07,9.58-.28,4.71-.14,4.65.09,9.09.19c1.49,0,3,0,4.42.13l4.33.31,8.37.59c1.36.11,2.71.15,4,.31l3.89.47,7.42.88.37-2.71-7.69-1-3.85-.49c-1.28-.15-2.58-.21-3.86-.32l-7.73-.59-3.87-.29-1.93-.15-1.94-.06.06-1.36A335.33,335.33,0,0,1,557,82.84a341,341,0,0,1,50.27,45.06l-9.74-10.22c-.9-1-1.91-1.92-2.92-2.88l-3.07-2.92-6.3-6c-4.38-3.86-8.81-7.67-12.86-11.16L561.28,86c.2-.27.42-.55-1-1.95a126.35,126.35,0,0,0-10.88-8.26l9.69,6.9c1.66,1.13,3.22,2.44,4.82,3.68l4.83,3.81L573.64,94l4.74,4.12,4.78,4.16,2.4,2.09,2.32,2.21,9.31,8.92,9,9.44,2.26,2.37,2.15,2.48,4.3,5,4.3,5,4.07,5.18,4.07,5.18c.67.87,1.37,1.72,2,2.59l1.91,2.68,7.61,10.69L645.95,177c.58.91,1.19,1.8,1.75,2.73l1.63,2.79,3.24,5.55a355.8,355.8,0,0,1,21.76,44.25c3.19,7.15,3.84,6.94,1.59-.62A153.76,153.76,0,0,0,670,215l-2.39-5.82c-.44-1-.84-2.09-1.35-3.15l-1.56-3.25-3.39-7-1.83-3.74c-.65-1.26-1.38-2.52-2.09-3.82-5.79-10.36-11.61-19.56-17.51-28.09l-4.46-6.27c-1.47-2.07-2.9-4.14-4.49-6.08-3.11-3.92-6.1-7.86-9.24-11.67l-9.75-11.25L601.4,113.82c-.88-1-1.83-1.85-2.78-2.75l-2.87-2.74-5.88-5.6c-.5-.47-1-1-1.51-1.42l-1.58-1.37-3.2-2.77L577,91.45l.87-1.05a346.37,346.37,0,0,1,39.46,39l4.84,5.63,1.2,1.41,1.14,1.46,2.27,2.9,4.5,5.73,2.22,2.83,2.07,2.89c2.73,3.84,5.45,7.53,8,11.13l7,10.49c4.57,6.51.74-.44-3.14-7.44l-2.79-5c-.91-1.49-1.67-2.79-2.16-3.67-1-1.76-.8-1.89,1.66,1.27.57.82,1.18,1.62,1.72,2.46l1.62,2.53,3.25,5.05,3.26,5c1.11,1.67,2.05,3.44,3.09,5.15l6.17,10.33q2.87,5.28,5.84,10.53a349.49,349.49,0,0,0-43.9-66.9l-6.9-7.93c-1.15-1.31-2.28-2.65-3.45-3.94l-3.61-3.78-7.16-7.5c-2.44-2.42-4.93-4.74-7.37-7.09-9.72-9.41-19.78-17.69-29.2-25.18-1.5-1.34-3.12-2.52-4.67-3.74l-4.57-3.58c-3-2.33-5.7-4.56-8.15-6.31-4.84-3.61-8-6.23-7.61-6.81a400.73,400.73,0,0,0-51.19-26.15l-12.46-5.06-12.32-4.38c-4-1.53-8.11-2.66-12.09-3.91L448.46,16c-1-.29-2-.63-2.94-.89l-3-.76A437.32,437.32,0,0,0,358.34.2c-2-.12-5.11-.19-9-.2l-6.46,0c-2.35,0-4.87.14-7.56.32L326.78.9l-4.57.32-4.74.57c-6.43.82-13.33,1.51-20.39,2.92-3.54.64-7.14,1.26-10.77,2L275.41,9.2l-5.49,1.29c-1.82.48-3.62,1-5.44,1.53l-10.8,3.1c-3.55,1.11-7,2.36-10.47,3.52s-6.85,2.25-10.08,3.61L223.63,26c-1.53.63-3.07,1.17-4.52,1.85Z"/><path class="cls-1" d="M438.59,179.51h9.63c-54.55-3.42-112.34-2.05-163.7-6.84l-12.85-2.73c-25.67-2-57.77-1.37-83.45,0a44.14,44.14,0,0,0-22.47,8.2c-3.22,1.37-6.42,4.1-3.22,5.47,6.42.68,22.46.68,22.46,3.42,0,.68-3.2.68-6.41.68,0,2.73-9.63,8.2-12.84,8.2-3.22,1.37-22.47,5.47-25.68,6.83-9.63,2.05,19.26,12.3,32.1,14.35,6.42,1.37,0,3.42,0,5.47,6.42-.68,9.64,1.37,16.06.68,0,.68,19.25,1.37,28.88,1.37,0,0,3.21-.68,12.84-.68,3.21,0,3.21-.68,3.21-1.37v1.37c3.22-1.37,9.64,0,12.85-.68v1.37c6.41-1.37,12.83,0,19.25-.68v1.37c3.22,0,6.42,0,6.42.68v1.37c3.22.68,9.64-.68,9.64.68v-1.37c12.84,0,22.47.68,32.1,1.37,25.67,2.73,57.78,1.37,86.67,0,3.21,0,6.42-1.37,3.21-2.73h9.63c6.42,0,3.21-2.05,9.62-2.05,51.37-3.42,102.73,0,154.09-2.05-12.84-.68-22.48-2-35.31-1.37,0-.68,0-2-3.21-2-19.26-.68-41.73.68-51.36-2.05-3.21-.68-6.42-2.73-16.05-2.73h9.64v-2c-12.84-.68-28.9-1.37-41.74-2v-2h-6.42c-6.42-4.79,28.89-4.1,44.94-4.79v-2.73h-6.42V198h41.72c0-.68,0-1.37-3.21-1.37,12.84,0,28.9.69,41.73-.68,3.21-.68,0-2.73-9.63-3.42H515.63v-1.37c6.42,0,16.05.68,22.48,0,3.21-.69-6.42-2.05-3.22-2.74a45.89,45.89,0,0,0,9.64-.68c-9.64,0-22.48.68-32.12,0C509.21,187,506,186.34,506,185c-16,.68-28.88-1.37-38.51-4.78C464.28,178.83,448.22,179.51,438.59,179.51Z"/><path class="cls-1" d="M438.59,335.14h9.63c-54.55-3.42-112.34-2.05-163.7-6.84l-12.85-2.73c-25.67-2-57.77-1.37-83.45,0a44.14,44.14,0,0,0-22.47,8.2c-3.22,1.37-6.42,4.1-3.22,5.47,6.42.68,22.46.68,22.46,3.42,0,.68-3.2.68-6.41.68,0,2.73-9.63,8.2-12.84,8.2-3.22,1.37-22.47,5.47-25.68,6.83-9.63,2.05,19.26,12.3,32.1,14.35,6.42,1.37,0,3.42,0,5.47,6.42-.68,9.64,1.37,16.06.68,0,.68,19.25,1.37,28.88,1.37,0,0,3.21-.68,12.84-.68,3.21,0,3.21-.68,3.21-1.37v1.37c3.22-1.37,9.64,0,12.85-.68v1.37c6.41-1.37,12.83,0,19.25-.68v1.37c3.22,0,6.42,0,6.42.68V383c3.22.68,9.64-.68,9.64.68v-1.37c12.84,0,22.47.68,32.1,1.37,25.67,2.73,57.78,1.37,86.67,0,3.21,0,6.42-1.37,3.21-2.73h9.63c6.42,0,3.21-2.05,9.62-2.05,51.37-3.42,102.73,0,154.09-2.05-12.84-.68-22.48-2-35.31-1.37,0-.68,0-2-3.21-2-19.26-.68-41.73.68-51.36-2.05-3.21-.68-6.42-2.73-16.05-2.73h9.64v-2c-12.84-.68-28.9-1.37-41.74-2v-2h-6.42c-6.42-4.79,28.89-4.1,44.94-4.79V355h-6.42v-1.37h41.72c0-.68,0-1.37-3.21-1.37,12.84,0,28.9.69,41.73-.68,3.21-.68,0-2.73-9.63-3.42H515.63v-1.37c6.42,0,16.05.68,22.48,0,3.21-.69-6.42-2.05-3.22-2.74a45.89,45.89,0,0,0,9.64-.68c-9.64,0-22.48.68-32.12,0-3.21-.68-6.42-1.37-6.42-2.73-16,.68-28.88-1.37-38.51-4.78C464.28,334.46,448.22,335.14,438.59,335.14Z"/><path class="cls-1" d="M438.59,490.77h9.63c-54.55-3.42-112.34-2.05-163.7-6.84l-12.85-2.73c-25.67-2-57.77-1.37-83.45,0a44.14,44.14,0,0,0-22.47,8.2c-3.22,1.37-6.42,4.1-3.22,5.47,6.42.68,22.46.68,22.46,3.42,0,.68-3.2.68-6.41.68,0,2.73-9.63,8.2-12.84,8.2-3.22,1.37-22.47,5.47-25.68,6.83-9.63,2.05,19.26,12.3,32.1,14.35,6.42,1.37,0,3.42,0,5.47,6.42-.68,9.64,1.37,16.06.68,0,.68,19.25,1.37,28.88,1.37,0,0,3.21-.68,12.84-.68,3.21,0,3.21-.68,3.21-1.37v1.37c3.22-1.37,9.64,0,12.85-.68v1.37c6.41-1.37,12.83,0,19.25-.68v1.37c3.22,0,6.42,0,6.42.68v1.37c3.22.68,9.64-.68,9.64.68v-1.37c12.84,0,22.47.68,32.1,1.37,25.67,2.73,57.78,1.37,86.67,0,3.21,0,6.42-1.37,3.21-2.73h9.63c6.42,0,3.21-2.05,9.62-2.05,51.37-3.42,102.73,0,154.09-2.05-12.84-.68-22.48-2-35.31-1.37,0-.68,0-2-3.21-2-19.26-.68-41.73.68-51.36-2.05-3.21-.68-6.42-2.73-16.05-2.73h9.64v-2c-12.84-.68-28.9-1.37-41.74-2v-2h-6.42c-6.42-4.79,28.89-4.1,44.94-4.79v-2.73h-6.42v-1.37h41.72c0-.68,0-1.37-3.21-1.37,12.84,0,28.9.69,41.73-.68,3.21-.68,0-2.73-9.63-3.42H515.63v-1.37c6.42,0,16.05.68,22.48,0,3.21-.69-6.42-2.05-3.22-2.74a45.89,45.89,0,0,0,9.64-.68c-9.64,0-22.48.68-32.12,0-3.21-.68-6.42-1.37-6.42-2.73-16,.68-28.88-1.37-38.51-4.78C464.28,490.09,448.22,490.77,438.59,490.77Z"/></svg>